<mxfile host="app.diagrams.net" agent="Mozilla/5.0 (Windows NT 10.0; Win64; x64) AppleWebKit/537.36 (KHTML, like Gecko) Chrome/131.0.0.0 Safari/537.36" version="25.0.1">
  <diagram name="หน้า-1" id="KkEdLRlDNOzUqddT7xb_">
    <mxGraphModel dx="1050" dy="530" grid="1" gridSize="10" guides="1" tooltips="1" connect="1" arrows="1" fold="1" page="1" pageScale="1" pageWidth="827" pageHeight="1169" math="0" shadow="0">
      <root>
        <mxCell id="0" />
        <mxCell id="1" parent="0" />
        <mxCell id="Ux3kClubimHEc86WzaHW-3" value="" style="edgeStyle=orthogonalEdgeStyle;rounded=0;orthogonalLoop=1;jettySize=auto;html=1;" edge="1" parent="1" source="Ux3kClubimHEc86WzaHW-1" target="Ux3kClubimHEc86WzaHW-2">
          <mxGeometry relative="1" as="geometry" />
        </mxCell>
        <mxCell id="Ux3kClubimHEc86WzaHW-1" value="Start" style="ellipse;whiteSpace=wrap;html=1;" vertex="1" parent="1">
          <mxGeometry x="354" y="10" width="120" height="80" as="geometry" />
        </mxCell>
        <mxCell id="Ux3kClubimHEc86WzaHW-5" value="" style="edgeStyle=orthogonalEdgeStyle;rounded=0;orthogonalLoop=1;jettySize=auto;html=1;" edge="1" parent="1" source="Ux3kClubimHEc86WzaHW-2" target="Ux3kClubimHEc86WzaHW-4">
          <mxGeometry relative="1" as="geometry" />
        </mxCell>
        <mxCell id="Ux3kClubimHEc86WzaHW-2" value="Input n" style="shape=parallelogram;perimeter=parallelogramPerimeter;whiteSpace=wrap;html=1;fixedSize=1;" vertex="1" parent="1">
          <mxGeometry x="354" y="180" width="120" height="60" as="geometry" />
        </mxCell>
        <mxCell id="Ux3kClubimHEc86WzaHW-7" value="" style="edgeStyle=orthogonalEdgeStyle;rounded=0;orthogonalLoop=1;jettySize=auto;html=1;" edge="1" parent="1" source="Ux3kClubimHEc86WzaHW-4" target="Ux3kClubimHEc86WzaHW-6">
          <mxGeometry relative="1" as="geometry" />
        </mxCell>
        <mxCell id="Ux3kClubimHEc86WzaHW-4" value="n x n-1 x ... x 1" style="whiteSpace=wrap;html=1;" vertex="1" parent="1">
          <mxGeometry x="354" y="320" width="120" height="60" as="geometry" />
        </mxCell>
        <mxCell id="Ux3kClubimHEc86WzaHW-9" value="" style="edgeStyle=orthogonalEdgeStyle;rounded=0;orthogonalLoop=1;jettySize=auto;html=1;" edge="1" parent="1" source="Ux3kClubimHEc86WzaHW-6" target="Ux3kClubimHEc86WzaHW-8">
          <mxGeometry relative="1" as="geometry" />
        </mxCell>
        <mxCell id="Ux3kClubimHEc86WzaHW-6" value="output n x n-1 x ... x 1" style="shape=parallelogram;perimeter=parallelogramPerimeter;whiteSpace=wrap;html=1;fixedSize=1;" vertex="1" parent="1">
          <mxGeometry x="341" y="460" width="146" height="60" as="geometry" />
        </mxCell>
        <mxCell id="Ux3kClubimHEc86WzaHW-11" value="" style="edgeStyle=orthogonalEdgeStyle;rounded=0;orthogonalLoop=1;jettySize=auto;html=1;" edge="1" parent="1" source="Ux3kClubimHEc86WzaHW-8" target="Ux3kClubimHEc86WzaHW-10">
          <mxGeometry relative="1" as="geometry" />
        </mxCell>
        <mxCell id="Ux3kClubimHEc86WzaHW-8" value="output sum n" style="shape=parallelogram;perimeter=parallelogramPerimeter;whiteSpace=wrap;html=1;fixedSize=1;" vertex="1" parent="1">
          <mxGeometry x="354" y="600" width="120" height="60" as="geometry" />
        </mxCell>
        <mxCell id="Ux3kClubimHEc86WzaHW-10" value="End" style="ellipse;whiteSpace=wrap;html=1;" vertex="1" parent="1">
          <mxGeometry x="354" y="740" width="120" height="80" as="geometry" />
        </mxCell>
      </root>
    </mxGraphModel>
  </diagram>
</mxfile>
